<?xml version="1.0" encoding="UTF-8" standalone="no"?>
<svg width="933px" height="638px" viewBox="0 0 933 638" version="1.1" xmlns="http://www.w3.org/2000/svg" xmlns:xlink="http://www.w3.org/1999/xlink">
    <!-- Generator: Sketch 3.6.1 (26313) - http://www.bohemiancoding.com/sketch -->
    <title>Train-States</title>
    <desc>Created with Sketch.</desc>
    <defs>
        <rect id="path-1" x="615" y="113" width="151" height="51" rx="25"></rect>
    </defs>
    <g id="train_states_transition" stroke="none" stroke-width="1" fill="none" fill-rule="evenodd">
        <rect id="Rectangle-1" stroke="#000000" stroke-width="3" x="390" y="553" width="151" height="51" rx="25"></rect>
        <rect id="Rectangle-1-Copy" stroke="#000000" stroke-width="3" x="395" y="558" width="141" height="41.4799995" rx="25"></rect>
        <text id="ARRIVED" font-family="Optima-Bold, Optima" font-size="24" font-weight="bold" fill="#000000">
            <tspan x="417" y="587">ARRIVED</tspan>
        </text>
        <path d="M234,169 L378,351" id="Line" stroke="#000000" stroke-width="2" stroke-linecap="square"></path>
        <path id="Line-decoration-1" d="M378,351 L373.651454,340.668972 L368.946131,344.391865 L378,351 Z" stroke="#000000" stroke-width="2" stroke-linecap="square"></path>
        <text id="didHeadTo()" font-family="Menlo-Bold, Menlo" font-size="18" font-weight="bold" fill="#8B572A">
            <tspan x="176" y="275">didHeadTo()</tspan>
        </text>
        <text id="wishToHeadTo()" font-family="Menlo-Bold, Menlo" font-size="18" font-weight="bold" fill="#D0011B">
            <tspan x="395" y="130">wishToHeadTo()</tspan>
        </text>
        <text id="wishToHeadTo()-Copy" font-family="Menlo-Bold, Menlo" font-size="18" font-weight="bold" fill="#D0011B">
            <tspan x="632" y="301">wishToHeadTo()</tspan>
        </text>
        <rect id="Rectangle-1" stroke="#000000" stroke-width="3" x="159" y="113" width="151" height="51" rx="25"></rect>
        <text id="WAITING" font-family="Optima-Bold, Optima" font-size="24" font-weight="bold" fill="#000000">
            <tspan x="182" y="147">WAITING</tspan>
        </text>
        <text id="update()" font-family="Menlo-Bold, Menlo" font-size="18" font-weight="bold" fill="#F6A623">
            <tspan x="194" y="49">update()</tspan>
        </text>
        <path d="M227.540259,104.266046 C223.677424,99.1583104 212,91.0743409 212,79.0692371 C212,67.0641333 223.769312,59 235.500001,59 C247.230689,59 259.000003,65.5210908 259,79.0692371 C258.999997,92.6173835 250.761727,98.4312489 250.761727,98.4312489 L242.437147,104.266046" id="self-loop-copy-4" stroke="#000000" stroke-width="2" stroke-linecap="square"></path>
        <path id="self-loop-copy-4-decoration-1" d="M242.437147,104.266046 L253.002951,100.523884 L249.559171,95.6105983 L242.437147,104.266046 Z" stroke="#000000" stroke-width="2" stroke-linecap="square"></path>
        <text id="IDLE" font-family="Optima-Bold, Optima" font-size="24" font-weight="bold" fill="#000000">
            <tspan x="665" y="147">IDLE</tspan>
        </text>
        <g id="Rectangle-1">
            <use stroke="#000000" stroke-width="3" xlink:href="#path-1"></use>
            <use stroke="none" xlink:href="#path-1"></use>
        </g>
        <rect id="Rectangle-1" stroke="#000000" stroke-width="3" x="383" y="325" width="163" height="51" rx="25"></rect>
        <text id="ENROUTE" font-family="Optima-Bold, Optima" font-size="24" font-weight="bold" fill="#000000">
            <tspan x="410" y="359">ENROUTE</tspan>
        </text>
        <path d="M456.540259,318.266046 C452.677424,313.15831 441,305.074341 441,293.069237 C441,281.064133 452.769312,273 464.500001,273 C476.230689,273 488.000003,279.521091 488,293.069237 C487.999997,306.617383 479.761727,312.431249 479.761727,312.431249 L471.437147,318.266046" id="self-loop-copy-2" stroke="#000000" stroke-width="2" stroke-linecap="square"></path>
        <path id="self-loop-copy-2-decoration-1" d="M471.437147,318.266046 L482.002951,314.523884 L478.559171,309.610598 L471.437147,318.266046 Z" stroke="#000000" stroke-width="2" stroke-linecap="square"></path>
        <text id="update()-copy" font-family="Menlo-Bold, Menlo" font-size="18" font-weight="bold" fill="#F6A623">
            <tspan x="423" y="267">update()</tspan>
        </text>
        <path d="M465,380 L465,547" id="Line-Copy" stroke="#000000" stroke-width="2" stroke-linecap="square"></path>
        <path id="Line-Copy-decoration-1" d="M465,547 L468,536.2 L462,536.2 L465,547 Z" stroke="#000000" stroke-width="2" stroke-linecap="square"></path>
        <text id="haveReached()-Copy" font-family="Menlo-Bold, Menlo" font-size="18" font-weight="bold" fill="#4990E2">
            <tspan x="314" y="469">haveReached()</tspan>
        </text>
        <text id="update()" font-family="Menlo-BoldItalic, Menlo" font-size="18" font-style="italic" font-weight="bold" fill="#F6A623">
            <tspan x="814" y="145">update()</tspan>
        </text>
        <text id="haveReached()" font-family="Menlo-Bold, Menlo" font-size="18" font-weight="bold" fill="#4990E2">
            <tspan x="509" y="215">haveReached()</tspan>
        </text>
        <path d="M554,338 L689,173" id="Line" stroke="#000000" stroke-width="2" stroke-linecap="square"></path>
        <path id="Line-decoration-1" d="M689,173 L679.83916,179.459025 L684.482904,183.258452 L689,173 Z" stroke="#000000" stroke-width="2" stroke-linecap="square"></path>
        <path d="M808.5,139 L774.5,139" id="Line" stroke="#000000" stroke-width="4" stroke-linecap="square"></path>
        <path id="Line-decoration-1" d="M774.5,139 L785.3,142 L785.3,136 L774.5,139 Z" stroke="#000000" stroke-width="4" stroke-linecap="square"></path>
        <path d="M608.5,138 L317.5,138" id="Line" stroke="#000000" stroke-width="2" stroke-linecap="square"></path>
        <path id="Line-decoration-1" d="M317.5,138 L328.3,141 L328.3,135 L317.5,138 Z" stroke="#000000" stroke-width="2" stroke-linecap="square"></path>
        <path d="M708,172 L556,361" id="Line" stroke="#000000" stroke-width="2" stroke-linecap="square"></path>
        <path id="Line-decoration-1" d="M556,361 L565.106177,354.464135 L560.430634,350.703909 L556,361 Z" stroke="#000000" stroke-width="2" stroke-linecap="square"></path>
    </g>
</svg>